<svg id="Layer_1" data-name="Layer 1" xmlns="http://www.w3.org/2000/svg" viewBox="0 0 122.88 47.85"><defs><style>.cls-1{fill-rule:evenodd;}</style></defs><title>flatbed-truck</title><path class="cls-1" d="M83,22.69H0V32.9a4.5,4.5,0,0,0,4.49,4.49h6a11.92,11.92,0,0,1,23.82,0H50.66a11.92,11.92,0,0,1,23.82,0H93.29c.67-15.25,22.54-17.36,24.77,0h4.82c-1.81-19.2.7-15-17.5-21.93a24.52,24.52,0,0,0-1.54-6.67C100.38-.75,94.64.08,83,0V22.69ZM62.57,28.9a9,9,0,1,0,9,9,9,9,0,0,0-9-9Zm0,5.55A3.48,3.48,0,1,0,66,37.93a3.47,3.47,0,0,0-3.47-3.48ZM22.42,28.9a9,9,0,1,0,9,9,9,9,0,0,0-9-9Zm0,5.55a3.48,3.48,0,1,0,3.47,3.48,3.48,3.48,0,0,0-3.47-3.48ZM105.68,28a9.92,9.92,0,1,0,9.91,9.92A9.92,9.92,0,0,0,105.68,28Zm0,6.1a3.82,3.82,0,1,0,3.81,3.82,3.82,3.82,0,0,0-3.81-3.82ZM94.36,5.21l-5.6-.09V15.46H99.13A18.27,18.27,0,0,0,94.36,5.21Z"/></svg>